<svg xmlns="http://www.w3.org/2000/svg" xmlns:xlink="http://www.w3.org/1999/xlink" width="135" height="135" viewBox="0 0 135 135"><defs><clipPath id="b"><rect width="135" height="135"/></clipPath></defs><g id="a" clip-path="url(#b)"><path d="M73.21,45.757c15.873,0,9.151,18.3,9.151,18.3s18.3-7.294,18.3,9.151v27.454H54.908V45.757Zm3.784-9.151H45.757v73.21h64.059V69.358C109.816,58.413,91.463,36.605,76.994,36.605ZM36.605,91.513H9.151V18.3h18.3l9.618,9.151H54.908L64.059,18.3h18.3v9.815a35,35,0,0,1,9.151,3.45V9.151H77.786c-5.623,0-9.975-4.96-13.727-9.151H27.454C23.7,4.191,19.35,9.151,13.727,9.151H0v91.513H36.605ZM45.757,9.151a4.576,4.576,0,1,1-4.576,4.576A4.574,4.574,0,0,1,45.757,9.151Zm18.3,82.362H91.513V86.937H64.059Zm0-9.151H91.513V77.786H64.059Zm0-9.151H91.513V68.635H64.059Z" transform="translate(12.592 12.592)" fill="#e4e9f8"/></g></svg>