<svg xmlns="http://www.w3.org/2000/svg" xmlns:xlink="http://www.w3.org/1999/xlink" width="135" height="135" viewBox="0 0 135 135"><defs><clipPath id="b"><rect width="135" height="135"/></clipPath></defs><g id="a" clip-path="url(#b)"><path d="M-374.5-551a61.115,61.115,0,0,1-23.939-4.833,61.294,61.294,0,0,1-19.548-13.18,61.3,61.3,0,0,1-13.18-19.549A61.117,61.117,0,0,1-436-612.5a61.114,61.114,0,0,1,4.833-23.938,61.294,61.294,0,0,1,13.18-19.548,61.294,61.294,0,0,1,19.548-13.18A61.114,61.114,0,0,1-374.5-674a61.113,61.113,0,0,1,23.938,4.833,61.293,61.293,0,0,1,19.548,13.18,61.3,61.3,0,0,1,13.18,19.548A61.114,61.114,0,0,1-313-612.5a61.116,61.116,0,0,1-4.833,23.939,61.3,61.3,0,0,1-13.18,19.549,61.294,61.294,0,0,1-19.548,13.18A61.113,61.113,0,0,1-374.5-551Zm-.242-52.941h0l22.77,22.931,8.4-8.4-22.933-22.771,23.417-23.417-8.236-8.4-23.417,23.416-22.933-22.771-8.236,8.237,22.771,22.932-22.771,22.771,8.236,8.4,22.932-22.931Z" transform="translate(442 680)" fill="#744064"/></g></svg>