<svg xmlns="http://www.w3.org/2000/svg" xmlns:xlink="http://www.w3.org/1999/xlink" width="135" height="134" viewBox="0 0 135 134"><defs><clipPath id="b"><rect width="135" height="134"/></clipPath></defs><g id="a" clip-path="url(#b)"><path d="M60,120a59.721,59.721,0,0,1-33.547-10.247,60.174,60.174,0,0,1-21.738-26.4,59.921,59.921,0,0,1,5.532-56.9,60.176,60.176,0,0,1,26.4-21.738,59.92,59.92,0,0,1,56.9,5.532,60.175,60.175,0,0,1,21.738,26.4,59.921,59.921,0,0,1-5.532,56.9,60.174,60.174,0,0,1-26.4,21.738A59.625,59.625,0,0,1,60,120Zm-.017-92.389a3.006,3.006,0,0,0-1.69.527L29.388,47.316c-.03.02-.06.04-.089.061-.056.04-.111.082-.168.13a3.025,3.025,0,0,0-1.1,2.372V69.259a3.011,3.011,0,0,0,.487,1.687c.023.036.046.069.069.1a3.011,3.011,0,0,0,.854.81L58.328,91.021a3.026,3.026,0,0,0,3.344,0l28.94-19.2A3.018,3.018,0,0,0,91.965,69.3V49.88a3.021,3.021,0,0,0-1.353-2.564l-28.9-19.177a3.006,3.006,0,0,0-1.69-.527h-.034Zm3.042,55.252v-12.2L74.361,63.14l9.132,6.143L63.027,82.862Zm-6.05,0h0L36.506,69.283l9.133-6.142,11.336,7.52v12.2ZM60,65.407h0l-8.927-5.922,8.927-6,8.926,6L60,65.407Zm25.915-1.786h0l-6.1-4.1,6.1-4.045v8.146Zm-51.83,0V55.474l6.1,4.045-6.1,4.1Zm40.3-7.755h0l-11.358-7.64V36.273L83.47,49.837l-9.085,6.028Zm-28.768,0h0l-9.085-6.028L56.975,36.273V48.225l-11.358,7.64Z" transform="translate(8 7)" fill="#e4e9f8"/></g></svg>