<svg xmlns="http://www.w3.org/2000/svg" xmlns:xlink="http://www.w3.org/1999/xlink" width="135" height="135" viewBox="0 0 135 135"><defs><clipPath id="b"><rect width="135" height="135"/></clipPath></defs><g id="a" clipPath="url(#b)"><path d="M30.848,10.446a4.446,4.446,0,1,1,4.573,7.627,50.4,50.4,0,1,0,51.77.018,4.449,4.449,0,1,1,4.585-7.627,59.3,59.3,0,1,1-60.927-.018Zm4.929,50.9S47.786,73.33,58.189,83.727a4.446,4.446,0,0,0,6.293,0c10.4-10.391,22.413-22.389,22.413-22.389a4.448,4.448,0,0,0-6.287-6.293L65.78,69.867V6.448a4.448,4.448,0,1,0-8.9,0V69.867L42.069,55.051a4.426,4.426,0,0,0-6.251.036A4.474,4.474,0,0,0,34.5,58.236a4.375,4.375,0,0,0,1.275,3.108Z" transform="translate(6.206 6.192)" fill="#e4e9f8"/></g></svg>