<svg xmlns="http://www.w3.org/2000/svg" xmlns:xlink="http://www.w3.org/1999/xlink" width="135" height="135" viewBox="0 0 135 135"><defs><clipPath id="b"><rect width="135" height="135"/></clipPath></defs><g id="a" clip-path="url(#b)"><path d="M63.451,33.99l.131.81a2.57,2.57,0,0,1-1.119,2.1c-2.28,1.577-1.98,1.178-2.84,3.751a2.686,2.686,0,0,1-2.564,1.8H57.05c-2.815-.008-2.327-.161-4.591,1.433a2.78,2.78,0,0,1-3.188,0c-2.264-1.594-1.776-1.441-4.591-1.433h-.008a2.686,2.686,0,0,1-2.564-1.8c-.86-2.573-.564-2.175-2.836-3.751A2.576,2.576,0,0,1,38.149,34.8l.131-.805c.877-2.56.882-2.069,0-4.637l-.131-.81a2.576,2.576,0,0,1,1.123-2.107c2.272-1.577,1.971-1.174,2.836-3.751a2.686,2.686,0,0,1,2.564-1.8h.008c2.806.008,2.306.174,4.591-1.433a2.78,2.78,0,0,1,3.188,0c2.264,1.594,1.776,1.441,4.591,1.433h.008a2.686,2.686,0,0,1,2.564,1.8c.86,2.573.56,2.175,2.84,3.751a2.583,2.583,0,0,1,1.119,2.107l-.131.81c-.877,2.56-.882,2.069,0,4.637Zm-6.227-5.078-1.971-1.967-5.977,6.129-2.8-2.658-1.971,1.967,4.769,4.625ZM76.3,48.627H25.433v4.239H76.3ZM72.06,57.1H29.672v4.239H72.06ZM76.3,65.582H25.433v4.239H76.3ZM80.537,2H0V86.776H101.731V2ZM93.254,67.371A21.253,21.253,0,0,0,82.326,78.3H19.405A21.253,21.253,0,0,0,8.478,67.371V21.405A21.253,21.253,0,0,0,19.405,10.478H82.326A21.253,21.253,0,0,0,93.254,21.405Z" transform="translate(16.634 23.112)" fill="#262738"/></g></svg>