<svg xmlns="http://www.w3.org/2000/svg" xmlns:xlink="http://www.w3.org/1999/xlink" width="20" height="20" viewBox="0 0 20 20"><defs><clipPath id="b"><rect width="20" height="20"/></clipPath></defs><g id="a" clip-path="url(#b)"><path d="M15.915,8.865C12.692,6.951,7.375,6.775,4.3,7.709a.935.935,0,0,1-.543-1.79c3.532-1.073,9.4-.865,13.115,1.337a.935.935,0,1,1-.955,1.608Zm-.1,2.836a.781.781,0,0,1-1.073.257,13.128,13.128,0,0,0-9.965-1.166A.779.779,0,1,1,4.32,9.3a14.587,14.587,0,0,1,11.233,1.329A.78.78,0,0,1,15.81,11.7Zm-1.224,2.722a.622.622,0,0,1-.857.208c-2.348-1.435-5.3-1.759-8.785-.964a.623.623,0,0,1-.278-1.215c3.809-.871,7.077-.5,9.713,1.115A.622.622,0,0,1,14.586,14.423ZM10,0A10,10,0,1,0,20,10,10,10,0,0,0,10,0Z" transform="translate(0 0)" fill="#14171a" fill-rule="evenodd"/></g></svg>