<svg xmlns="http://www.w3.org/2000/svg" xmlns:xlink="http://www.w3.org/1999/xlink" width="135" height="135" viewBox="0 0 135 135"><defs><clipPath id="b"><rect width="135" height="135"/></clipPath></defs><g id="a" clip-path="url(#b)"><path d="M95.49,53.19C76.15,41.705,44.25,40.65,25.785,46.255a5.611,5.611,0,0,1-3.255-10.74c21.195-6.435,56.425-5.19,78.69,8.025a5.611,5.611,0,1,1-5.73,9.65Zm-.63,17.015a4.684,4.684,0,0,1-6.435,1.54c-16.125-9.91-40.71-12.785-59.79-7A4.676,4.676,0,1,1,25.92,55.8c21.79-6.61,48.88-3.41,67.4,7.975A4.677,4.677,0,0,1,94.86,70.205ZM87.515,86.54a3.73,3.73,0,0,1-5.14,1.245C68.285,79.175,50.55,77.23,29.665,82A3.739,3.739,0,0,1,28,74.71c22.855-5.225,42.46-2.975,58.275,6.69A3.733,3.733,0,0,1,87.515,86.54ZM60,0a60,60,0,1,0,60,60A60,60,0,0,0,60,0Z" transform="translate(8 8)" fill="#d8dbee" fill-rule="evenodd" opacity="0.2"/></g></svg>