<svg xmlns="http://www.w3.org/2000/svg" xmlns:xlink="http://www.w3.org/1999/xlink" width="48" height="48" viewBox="0 0 48 48"><defs><clipPath id="b"><rect width="48" height="48"/></clipPath></defs><g id="a" clip-path="url(#b)"><path d="M24,0A24,24,0,1,0,48,24,24,24,0,0,0,24,0ZM36.132,19.29A16.335,16.335,0,0,1,11,33.8a11.557,11.557,0,0,0,8.5-2.378,5.758,5.758,0,0,1-5.368-3.99,5.761,5.761,0,0,0,2.6-.1,5.753,5.753,0,0,1-4.608-5.706,5.731,5.731,0,0,0,2.6.718,5.753,5.753,0,0,1-1.778-7.67,16.306,16.306,0,0,0,11.84,6,5.749,5.749,0,0,1,9.79-5.24,11.458,11.458,0,0,0,3.648-1.394A5.768,5.768,0,0,1,35.7,17.218a11.46,11.46,0,0,0,3.3-.906A11.53,11.53,0,0,1,36.132,19.29Z" fill="#3dffc5"/></g></svg>