<svg xmlns="http://www.w3.org/2000/svg" xmlns:xlink="http://www.w3.org/1999/xlink" width="48" height="48" viewBox="0 0 48 48"><defs><clipPath id="b"><rect width="48" height="48"/></clipPath></defs><g id="a" clip-path="url(#b)"><path d="M0,0V48H48V0ZM29.068,39.18c-.812.156-1.068-.342-1.068-.768v-4.39a3.812,3.812,0,0,0-1.1-2.962c3.564-.4,7.308-1.75,7.308-7.894a6.172,6.172,0,0,0-1.648-4.294,5.74,5.74,0,0,0-.158-4.234s-1.342-.43-4.4,1.64a15.129,15.129,0,0,0-8.012,0c-3.056-2.07-4.4-1.64-4.4-1.64a5.758,5.758,0,0,0-.154,4.236,6.185,6.185,0,0,0-1.648,4.294c0,6.128,3.734,7.5,7.29,7.908a3.4,3.4,0,0,0-1.016,2.14A3.408,3.408,0,0,1,15.41,31.88a3.367,3.367,0,0,0-2.454-1.65s-1.56-.02-.11.974a4.237,4.237,0,0,1,1.778,2.34S15.55,36.4,20,35.432V38.41c0,.422-.258.918-1.056.77a15.994,15.994,0,1,1,10.124,0Z" fill="#b8c1c7"/></g></svg>