<svg xmlns="http://www.w3.org/2000/svg" xmlns:xlink="http://www.w3.org/1999/xlink" width="48" height="48" viewBox="0 0 48 48"><defs><clipPath id="b"><rect width="48" height="48"/></clipPath></defs><g id="a" clip-path="url(#b)"><path d="M24,0A24,24,0,1,0,48,24,24,24,0,0,0,24,0Zm4.436,37.232c-.708.138-.936-.3-.936-.672V32.718a3.338,3.338,0,0,0-.962-2.592c3.12-.346,6.4-1.53,6.4-6.908a5.413,5.413,0,0,0-1.442-3.758,5.037,5.037,0,0,0-.138-3.706s-1.174-.376-3.846,1.434a13.347,13.347,0,0,0-7.014,0c-2.674-1.81-3.85-1.434-3.85-1.434a5.032,5.032,0,0,0-.134,3.7,5.414,5.414,0,0,0-1.444,3.758c0,5.364,3.268,6.564,6.378,6.918a2.983,2.983,0,0,0-.888,1.872,2.98,2.98,0,0,1-4.074-1.164A2.945,2.945,0,0,0,14.336,29.4s-1.366-.018-.1.852A3.692,3.692,0,0,1,15.794,32.3s.81,2.5,4.706,1.652v2.606c0,.37-.226.8-.924.674a13.994,13.994,0,1,1,8.86,0Z" fill="#5721ff"/></g></svg>