<svg xmlns="http://www.w3.org/2000/svg" xmlns:xlink="http://www.w3.org/1999/xlink" width="48" height="48" viewBox="0 0 48 48"><defs><clipPath id="b"><rect width="48" height="48"/></clipPath></defs><g id="a" clip-path="url(#b)"><path d="M0,0V48H48V0ZM37.724,18.474C38.14,27.708,31.254,38,19.064,38A18.573,18.573,0,0,1,9,35.054a13.209,13.209,0,0,0,9.72-2.718,6.57,6.57,0,0,1-6.132-4.56,6.6,6.6,0,0,0,2.964-.112,6.572,6.572,0,0,1-5.266-6.52,6.532,6.532,0,0,0,2.972.822A6.577,6.577,0,0,1,11.226,13.2a18.64,18.64,0,0,0,13.532,6.86,6.569,6.569,0,0,1,11.188-5.986,13.137,13.137,0,0,0,4.17-1.592,6.584,6.584,0,0,1-2.886,3.632A13.156,13.156,0,0,0,41,15.08a13.413,13.413,0,0,1-3.276,3.394Z" fill="#e2e2e2"/></g></svg>