<svg width="24" height="24" xmlns="http://www.w3.org/2000/svg" fill-rule="evenodd" clip-rule="evenodd"><path d="M12 0c6.623 0 12 5.377 12 12s-5.377 12-12 12-12-5.377-12-12 5.377-12 12-12zm9.233 15.845c-1.965-.657-1.902 2.019-2.833 2.379-1.372.53-1.787-1.539-3.501-1.079-1.024.276-1.247 2.84-2.741 2.855-1.472.015-1.542-2.537-2.757-2.85-1.569-.403-2.265 1.134-3.521.85-1.178-.266-.966-2.849-3.133-2.203 1.496 3.638 5.077 6.203 9.253 6.203 4.157 0 7.725-2.542 9.233-6.155zm-9.233-7.845c2.208 0 4 1.792 4 4s-1.792 4-4 4-4-1.792-4-4 1.792-4 4-4z"/></svg>