<svg xmlns="http://www.w3.org/2000/svg" xmlns:xlink="http://www.w3.org/1999/xlink" width="400" height="400" viewBox="0 0 400 400">
  <defs>
    <clipPath id="clip-Custom_Size_1">
      <rect width="400" height="400"/>
    </clipPath>
  </defs>
  <g id="Custom_Size_1" data-name="Custom Size – 1" clip-path="url(#clip-Custom_Size_1)">
    <path id="moon" d="M190.248,174.378a71.5,71.5,0,0,1,47.546,47.578,71.647,71.647,0,0,1,47.578-47.562,71.679,71.679,0,0,1-47.578-47.562,71.485,71.485,0,0,1-47.546,47.546Zm126.848.016A47.741,47.741,0,0,1,348.8,206.118,47.655,47.655,0,0,1,380.5,174.394a47.75,47.75,0,0,1-31.708-31.708A47.727,47.727,0,0,1,317.1,174.394ZM301.242,31.708a71.571,71.571,0,0,1-47.53,47.578,71.66,71.66,0,0,1,47.578,47.594,71.58,71.58,0,0,1,47.5-47.594,71.688,71.688,0,0,1-47.546-47.578ZM190.248,380.5C85.342,380.5,0,295.154,0,190.248S85.342,0,190.248,0c30.027,0,57.55,7.879,85.136,18.692-46.738,7.99-148.552,51.779-148.552,171.556,0,118.176,93.808,161.838,148.552,171.556C251.6,375.217,220.275,380.5,190.248,380.5Z" transform="translate(9 10)" fill="#fff"/>
  </g>
</svg>
