<svg xmlns="http://www.w3.org/2000/svg" xmlns:xlink="http://www.w3.org/1999/xlink" width="400" height="400" viewBox="0 0 400 400">
  <defs>
    <clipPath id="clip-path">
      <rect id="Rectangle_1" data-name="Rectangle 1" width="400" height="400" fill="#111"/>
    </clipPath>
    <clipPath id="clip-Custom_Size_1">
      <rect width="400" height="400"/>
    </clipPath>
  </defs>
  <g id="Custom_Size_1" data-name="Custom Size – 1" clip-path="url(#clip-Custom_Size_1)">
    <g id="Custom_Size_1-2" data-name="Custom Size – 1" clip-path="url(#clip-path)">
      <path id="sun" d="M65.44,209.073H0V176.908H65.44a117.094,117.094,0,0,0,0,32.165Zm48.794-117.6L67.9,45.144,45.16,67.884l46.334,46.334a128.961,128.961,0,0,1,22.74-22.741ZM294.5,114.218l46.334-46.334L318.1,45.144,271.762,91.477A130.606,130.606,0,0,1,294.5,114.218ZM192.99,64.33a129.417,129.417,0,0,1,16.083,1.11V0H176.908V65.44a129.408,129.408,0,0,1,16.082-1.11Zm0,257.32a129.417,129.417,0,0,1-16.083-1.11v65.44h32.165V320.54a129.413,129.413,0,0,1-16.082,1.11ZM320.54,176.908a117.1,117.1,0,0,1,0,32.165h65.44V176.908ZM271.762,294.5l46.318,46.32,22.757-22.741-46.318-46.318A130.7,130.7,0,0,1,271.762,294.5ZM91.477,271.746,45.16,318.064,67.9,340.8l46.318-46.318a129.506,129.506,0,0,1-22.741-22.741ZM192.99,96.5a96.572,96.572,0,1,1-.011,0Z" transform="translate(7 6)" fill="#111"/>
    </g>
  </g>
</svg>
