<svg xmlns="http://www.w3.org/2000/svg" xmlns:xlink="http://www.w3.org/1999/xlink" width="22" height="22" viewBox="0 0 22 22"><defs><clipPath id="b"><rect width="22" height="22"/></clipPath></defs><g id="a" clip-path="url(#b)"><path d="M132-85a10.928,10.928,0,0,1-7.778-3.222A10.928,10.928,0,0,1,121-96a10.958,10.958,0,0,1,2.982-7.531l15.549,15.549c.164-.154.327-.317.486-.486l1.705,1.705-.486.485h0l-1.7-1.7A10.956,10.956,0,0,1,132-85Zm8.017-3.469h0l-15.548-15.548A10.957,10.957,0,0,1,132-107a10.927,10.927,0,0,1,7.778,3.222A10.929,10.929,0,0,1,143-96a10.958,10.958,0,0,1-2.982,7.531Zm-16.035-15.062h0l-1.7-1.705.486-.486,1.705,1.705c-.164.154-.327.317-.486.486Z" transform="translate(-121 107)"/></g></svg>