<svg xmlns="http://www.w3.org/2000/svg" xmlns:xlink="http://www.w3.org/1999/xlink" width="135" height="135" viewBox="0 0 135 135"><defs><clipPath id="b"><rect width="135" height="135"/></clipPath></defs><g id="a" clip-path="url(#b)"><g transform="translate(263.148 276.276)"><path d="M69.637,82.56-35.355-22.433l12.923-12.923L82.56,69.637Z" transform="translate(-219.25 -232.927)"/><path d="M104.993,117.916,0,12.923,12.923,0,117.916,104.993Z" transform="translate(-136.69 -268.283) rotate(90)"/><path d="M18.093,0h0a0,0,0,0,1,0,0V18.093a0,0,0,0,1,0,0H0a0,0,0,0,1,0,0v0A18.093,18.093,0,0,1,18.093,0Z" transform="translate(-195.201 -270.776) rotate(47)"/><path d="M18.093,0h0a0,0,0,0,1,0,0V18.093a0,0,0,0,1,0,0H0a0,0,0,0,1,0,0v0A18.093,18.093,0,0,1,18.093,0Z" transform="translate(-195.648 -146.776) rotate(-135)"/></g></g></svg>