<svg xmlns="http://www.w3.org/2000/svg" xmlns:xlink="http://www.w3.org/1999/xlink" width="134.015" height="135" viewBox="0 0 134.015 135"><defs><clipPath id="b"><rect width="134.015" height="135"/></clipPath></defs><g id="a" clip-path="url(#b)"><g transform="translate(4.622 1.896)"><path d="M75.741,89.415l-111.1-111.1,13.674-13.674,111.1,111.1Z" transform="translate(35.355 37.994)" fill="#744164"/><path d="M111.1,124.77,0,13.674,13.674,0l111.1,111.1Z" transform="translate(124.77 2.639) rotate(90)" fill="#744164"/><path d="M19.145,0h0a0,0,0,0,1,0,0V19.145a0,0,0,0,1,0,0H0a0,0,0,0,1,0,0v0A19.145,19.145,0,0,1,19.145,0Z" transform="translate(62.858 0) rotate(47)" fill="#744164"/><path d="M19.145,0h0a0,0,0,0,1,0,0V19.145a0,0,0,0,1,0,0H0a0,0,0,0,1,0,0v0A19.145,19.145,0,0,1,19.145,0Z" transform="translate(62.385 131.209) rotate(-135)" fill="#744164"/></g></g></svg>