<svg xmlns="http://www.w3.org/2000/svg" xmlns:xlink="http://www.w3.org/1999/xlink" width="135" height="135" viewBox="0 0 135 135"><defs><clipPath id="b"><rect width="135" height="135"/></clipPath></defs><g id="a" clip-path="url(#b)"><g transform="translate(0.985 -2.965)"><path d="M83.972,98.659-35.355-20.668l14.687-14.687L98.659,83.972Z" transform="translate(35.355 38.189)" fill="#262738"/><path d="M119.328,134.015,0,14.687,14.687,0,134.015,119.328Z" transform="translate(134.015 2.834) rotate(90)" fill="#262738"/><path d="M20.563,0h0a0,0,0,0,1,0,0V20.563a0,0,0,0,1,0,0H0a0,0,0,0,1,0,0v0A20.563,20.563,0,0,1,20.563,0Z" transform="translate(67.515 0) rotate(47)" fill="#262738"/><path d="M20.563,0h0a0,0,0,0,1,0,0V20.563a0,0,0,0,1,0,0H0a0,0,0,0,1,0,0v0A20.563,20.563,0,0,1,20.563,0Z" transform="translate(67.007 140.93) rotate(-135)" fill="#262738"/></g></g></svg>